<svg id="Ebene_1" data-name="Ebene 1" xmlns="http://www.w3.org/2000/svg" viewBox="0 0 437.03 437.03"><defs><style>.cls-1{fill:#fff;}.cls-2{fill:#f44336;}</style></defs><path class="cls-1" d="M256,300.57H186.48v-9.44q0-15.79,6.36-28T219.62,232L232,220.8q11-10,16.09-18.88a35.3,35.3,0,0,0,5.11-17.73q0-13.49-9.25-21.1t-25.82-7.61q-15.6,0-33.72,6.46a183.47,183.47,0,0,0-37.76,19.17v-60.5a325.65,325.65,0,0,1,42.58-12,189.42,189.42,0,0,1,37.19-3.85q47,0,71.67,19.17t24.67,56q0,18.88-7.52,33.82t-25.63,32.08l-12.33,11q-13.1,12-17.15,19.17a32.08,32.08,0,0,0-4,15.9Zm-69.56,28.52H256v68.59H186.48Z" transform="translate(-11.24 -7.55)"/><circle class="cls-2" cx="218.52" cy="218.52" r="218.52"/><rect class="cls-1" x="194.95" y="94.9" width="65.54" height="262.18" transform="translate(-104.34 219.66) rotate(-45)"/><rect class="cls-1" x="96.47" y="193.38" width="262.18" height="65.54" transform="translate(-104.51 219.59) rotate(-45)"/></svg>