<svg width="148" height="160" viewBox="0 0 148 160" fill="none" xmlns="http://www.w3.org/2000/svg">
<path d="M68.3459 102.497V102.486" stroke="black" stroke-width="0.195618" stroke-miterlimit="10"/>
<path d="M82.5015 70.311V110.92L82.4531 110.948L75.8334 107.127L73.9056 106.014V78.9036L73.8616 78.9289V75.2977L82.5015 70.311Z" fill="#3A0CA3"/>
<path d="M93.6307 53.9435L85.059 58.895L65.189 70.3639V73.9368L65.3067 74.0072L65.189 74.0776V79.8555L65.5752 80.0756L70.7028 77.1146L73.8575 75.2935L82.4974 70.3045V110.914L85.0546 109.437L91.0691 105.966V65.3651L93.6263 63.8884V63.8631L93.6472 63.8752L107.337 55.9703V46.0232L93.6307 53.9435Z" fill="#3F37C9"/>
<path d="M107.295 46.1431V46.1893L93.5832 54.1118L85.0126 59.0634L73.6372 65.6324L65.1437 70.5367L65.0578 70.5851L64.9258 70.5081L56.6831 65.7502V65.5642L64.9258 60.8063L65.1052 60.6963L65.1447 60.7194V60.6523L85.0126 49.18L90.2019 46.1849L93.5832 44.2318L98.7824 41.23L107.295 46.1431Z" fill="#4361EE"/>
<path d="M82.0569 94.58V94.5693" stroke="black" stroke-width="0.195618" stroke-miterlimit="10"/>
<path d="M74.0147 78.7474L65.432 83.699L65.355 83.7452L65.2945 83.7804V83.8101L56.8933 78.7694L60.3462 76.7767L65.355 79.6673V80.1163L65.4034 80.0888L65.7434 79.894L70.8699 76.9319L74.0147 78.7474Z" fill="#3A0CA3"/>
<path d="M65.295 83.8122V120.62L56.7915 115.711V78.8288L56.8938 78.7704L65.295 83.8122Z" fill="#F72585"/>
<path d="M74.0727 78.7792V115.62L65.3557 120.654L65.2952 120.619V83.7814L65.3557 83.7462L65.4327 83.7L74.0154 78.7484L74.0297 78.755L74.0727 78.7792Z" fill="#3F37C9"/>
<path d="M65.1547 70.6688V74.2493L65.0942 74.2141V74.4231L65.1547 74.3879V80.1703L60.1459 77.2796L56.9208 75.4145L56.7007 75.2847V65.8767L64.9434 70.6346L65.0754 70.7117L65.1547 70.6688Z" fill="#F72585"/>
<path d="M133.721 137.547C135.926 137.547 137.714 135.759 137.714 133.554C137.714 131.348 135.926 129.56 133.721 129.56C131.516 129.56 129.728 131.348 129.728 133.554C129.728 135.759 131.516 137.547 133.721 137.547Z" fill="#3F37C9"/>
<path d="M125.691 144.516C127.888 144.516 129.669 142.735 129.669 140.539C129.669 138.342 127.888 136.561 125.691 136.561C123.494 136.561 121.713 138.342 121.713 140.539C121.713 142.735 123.494 144.516 125.691 144.516Z" fill="#3F3ACA"/>
<path d="M116.737 150.324C118.925 150.324 120.699 148.55 120.699 146.362C120.699 144.173 118.925 142.399 116.737 142.399C114.549 142.399 112.775 144.173 112.775 146.362C112.775 148.55 114.549 150.324 116.737 150.324Z" fill="#403DCB"/>
<path d="M106.973 154.852C109.153 154.852 110.92 153.085 110.92 150.905C110.92 148.725 109.153 146.958 106.973 146.958C104.793 146.958 103.026 148.725 103.026 150.905C103.026 153.085 104.793 154.852 106.973 154.852Z" fill="#4040CC"/>
<path d="M96.5177 157.981C98.6891 157.981 100.449 156.221 100.449 154.05C100.449 151.878 98.6891 150.118 96.5177 150.118C94.3464 150.118 92.5862 151.878 92.5862 154.05C92.5862 156.221 94.3464 157.981 96.5177 157.981Z" fill="#4042CE"/>
<path d="M85.4902 159.598C87.6537 159.598 89.4075 157.844 89.4075 155.68C89.4075 153.517 87.6537 151.763 85.4902 151.763C83.3268 151.763 81.573 153.517 81.573 155.68C81.573 157.844 83.3268 159.598 85.4902 159.598Z" fill="#4045CF"/>
<path d="M74.1086 159.582C76.2635 159.582 78.0104 157.835 78.0104 155.68C78.0104 153.525 76.2635 151.778 74.1086 151.778C71.9537 151.778 70.2068 153.525 70.2068 155.68C70.2068 157.835 71.9537 159.582 74.1086 159.582Z" fill="#4148D0"/>
<path d="M63.0805 157.937C65.2269 157.937 66.9669 156.197 66.9669 154.051C66.9669 151.904 65.2269 150.164 63.0805 150.164C60.9341 150.164 59.1941 151.904 59.1941 154.051C59.1941 156.197 60.9341 157.937 63.0805 157.937Z" fill="#414BD1"/>
<path d="M52.6261 154.776C54.7641 154.776 56.4972 153.043 56.4972 150.905C56.4972 148.767 54.7641 147.034 52.6261 147.034C50.4882 147.034 48.7551 148.767 48.7551 150.905C48.7551 153.043 50.4882 154.776 52.6261 154.776Z" fill="#414ED2"/>
<path d="M42.8622 150.217C44.9916 150.217 46.7178 148.491 46.7178 146.362C46.7178 144.232 44.9916 142.506 42.8622 142.506C40.7328 142.506 39.0066 144.232 39.0066 146.362C39.0066 148.491 40.7328 150.217 42.8622 150.217Z" fill="#4151D3"/>
<path d="M33.9061 144.379C36.027 144.379 37.7463 142.659 37.7463 140.538C37.7463 138.418 36.027 136.698 33.9061 136.698C31.7852 136.698 30.0659 138.418 30.0659 140.538C30.0659 142.659 31.7852 144.379 33.9061 144.379Z" fill="#4253D5"/>
<path d="M25.8772 137.38C27.9902 137.38 29.7031 135.667 29.7031 133.554C29.7031 131.441 27.9902 129.728 25.8772 129.728C23.7642 129.728 22.0513 131.441 22.0513 133.554C22.0513 135.667 23.7642 137.38 25.8772 137.38Z" fill="#4256D6"/>
<path d="M18.8911 129.334C20.9956 129.334 22.7016 127.628 22.7016 125.523C22.7016 123.419 20.9956 121.713 18.8911 121.713C16.7866 121.713 15.0806 123.419 15.0806 125.523C15.0806 127.628 16.7866 129.334 18.8911 129.334Z" fill="#4259D7"/>
<path d="M13.0673 120.363C15.1633 120.363 16.8624 118.664 16.8624 116.568C16.8624 114.472 15.1633 112.772 13.0673 112.772C10.9713 112.772 9.27222 114.472 9.27222 116.568C9.27222 118.664 10.9713 120.363 13.0673 120.363Z" fill="#435CD8"/>
<path d="M8.5231 110.583C10.6106 110.583 12.3028 108.89 12.3028 106.803C12.3028 104.716 10.6106 103.023 8.5231 103.023C6.43563 103.023 4.74341 104.716 4.74341 106.803C4.74341 108.89 6.43563 110.583 8.5231 110.583Z" fill="#435FD9"/>
<path d="M5.3783 100.113C7.45726 100.113 9.14259 98.4275 9.14259 96.3486C9.14259 94.2696 7.45726 92.5843 5.3783 92.5843C3.29934 92.5843 1.61401 94.2696 1.61401 96.3486C1.61401 98.4275 3.29934 100.113 5.3783 100.113Z" fill="#4362DA"/>
<path d="M3.74998 89.072C5.82104 89.072 7.49997 87.3931 7.49997 85.3221C7.49997 83.251 5.82104 81.5721 3.74998 81.5721C1.67892 81.5721 0 83.251 0 85.3221C0 87.3931 1.67892 89.072 3.74998 89.072Z" fill="#4365DB"/>
<path d="M3.74996 77.6747C5.81251 77.6747 7.48454 76.0026 7.48454 73.9401C7.48454 71.8775 5.81251 70.2055 3.74996 70.2055C1.68741 70.2055 0.0153809 71.8775 0.0153809 73.9401C0.0153809 76.0026 1.68741 77.6747 3.74996 77.6747Z" fill="#4467DD"/>
<path d="M5.37835 66.6326C7.4324 66.6326 9.09753 64.9675 9.09753 62.9134C9.09753 60.8594 7.4324 59.1943 5.37835 59.1943C3.32431 59.1943 1.65918 60.8594 1.65918 62.9134C1.65918 64.9675 3.32431 66.6326 5.37835 66.6326Z" fill="#446ADE"/>
<path d="M8.52335 56.1629C10.5689 56.1629 12.2271 54.5047 12.2271 52.4591C12.2271 50.4136 10.5689 48.7554 8.52335 48.7554C6.47781 48.7554 4.81958 50.4136 4.81958 52.4591C4.81958 54.5047 6.47781 56.1629 8.52335 56.1629Z" fill="#446DDF"/>
<path d="M13.0663 46.383C15.1033 46.383 16.7547 44.7317 16.7547 42.6947C16.7547 40.6576 15.1033 39.0063 13.0663 39.0063C11.0293 39.0063 9.37793 40.6576 9.37793 42.6947C9.37793 44.7317 11.0293 46.383 13.0663 46.383Z" fill="#4470E0"/>
<path d="M18.8923 37.4139C20.9214 37.4139 22.5664 35.769 22.5664 33.7399C22.5664 31.7108 20.9214 30.0658 18.8923 30.0658C16.8632 30.0658 15.2183 31.7108 15.2183 33.7399C15.2183 35.769 16.8632 37.4139 18.8923 37.4139Z" fill="#4573E1"/>
<path d="M25.8764 29.3683C27.897 29.3683 29.5351 27.7303 29.5351 25.7096C29.5351 23.689 27.897 22.051 25.8764 22.051C23.8558 22.051 22.2178 23.689 22.2178 25.7096C22.2178 27.7303 23.8558 29.3683 25.8764 29.3683Z" fill="#4576E2"/>
<path d="M33.9057 22.3667C35.9178 22.3667 37.549 20.7356 37.549 18.7235C37.549 16.7114 35.9178 15.0802 33.9057 15.0802C31.8936 15.0802 30.2625 16.7114 30.2625 18.7235C30.2625 20.7356 31.8936 22.3667 33.9057 22.3667Z" fill="#4579E3"/>
<path d="M42.8615 16.5282C44.8651 16.5282 46.4893 14.904 46.4893 12.9004C46.4893 10.8968 44.8651 9.27255 42.8615 9.27255C40.8579 9.27255 39.2336 10.8968 39.2336 12.9004C39.2336 14.904 40.8579 16.5282 42.8615 16.5282Z" fill="#467BE5"/>
<path d="M52.6264 11.9686C54.6215 11.9686 56.2388 10.3512 56.2388 8.35612C56.2388 6.36103 54.6215 4.74368 52.6264 4.74368C50.6313 4.74368 49.0139 6.36103 49.0139 8.35612C49.0139 10.3512 50.6313 11.9686 52.6264 11.9686Z" fill="#467EE6"/>
<path d="M63.0815 8.81044C65.0687 8.81044 66.6797 7.1995 66.6797 5.2123C66.6797 3.22511 65.0687 1.61417 63.0815 1.61417C61.0943 1.61417 59.4834 3.22511 59.4834 5.2123C59.4834 7.1995 61.0943 8.81044 63.0815 8.81044Z" fill="#4681E7"/>
<path d="M74.1071 7.16546C76.0858 7.16546 77.6899 5.56142 77.6899 3.58273C77.6899 1.60404 76.0858 0 74.1071 0C72.1285 0 70.5244 1.60404 70.5244 3.58273C70.5244 5.56142 72.1285 7.16546 74.1071 7.16546Z" fill="#4684E8"/>
<path d="M85.4904 7.15015C87.4606 7.15015 89.0577 5.55301 89.0577 3.58283C89.0577 1.61265 87.4606 0.0155029 85.4904 0.0155029C83.5202 0.0155029 81.9231 1.61265 81.9231 3.58283C81.9231 5.55301 83.5202 7.15015 85.4904 7.15015Z" fill="#4787E9"/>
<path d="M96.5185 8.76314C98.4801 8.76314 100.07 7.17289 100.07 5.21122C100.07 3.24955 98.4801 1.6593 96.5185 1.6593C94.5568 1.6593 92.9666 3.24955 92.9666 5.21122C92.9666 7.17289 94.5568 8.76314 96.5185 8.76314Z" fill="#478AEA"/>
<path d="M106.973 11.8936C108.926 11.8936 110.509 10.3102 110.509 8.35704C110.509 6.40388 108.926 4.82053 106.973 4.82053C105.019 4.82053 103.436 6.40388 103.436 8.35704C103.436 10.3102 105.019 11.8936 106.973 11.8936Z" fill="#478CEC"/>
<path d="M116.737 16.4228C118.682 16.4228 120.259 14.8458 120.259 12.9006C120.259 10.9553 118.682 9.37836 116.737 9.37836C114.792 9.37836 113.215 10.9553 113.215 12.9006C113.215 14.8458 114.792 16.4228 116.737 16.4228Z" fill="#478FED"/>
<path d="M125.692 22.2313C127.628 22.2313 129.198 20.6613 129.198 18.7245C129.198 16.7878 127.628 15.2177 125.692 15.2177C123.755 15.2177 122.185 16.7878 122.185 18.7245C122.185 20.6613 123.755 22.2313 125.692 22.2313Z" fill="#4892EE"/>
<path d="M133.719 29.2009C135.648 29.2009 137.211 27.6378 137.211 25.7095C137.211 23.7813 135.648 22.2181 133.719 22.2181C131.791 22.2181 130.228 23.7813 130.228 25.7095C130.228 27.6378 131.791 29.2009 133.719 29.2009Z" fill="#4895EF"/>
<path d="M134.006 50.4849C136.053 50.4849 137.713 48.8252 137.713 46.7779C137.713 44.7305 136.053 43.0708 134.006 43.0708C131.959 43.0708 130.299 44.7305 130.299 46.7779C130.299 48.8252 131.959 50.4849 134.006 50.4849Z" fill="#B5179E"/>
<path d="M127.059 41.6028C129.11 41.6028 130.773 39.9402 130.773 37.8892C130.773 35.8382 129.11 34.1755 127.059 34.1755C125.008 34.1755 123.345 35.8382 123.345 37.8892C123.345 39.9402 125.008 41.6028 127.059 41.6028Z" fill="#B7179D"/>
<path d="M118.653 34.1008C120.707 34.1008 122.372 32.4357 122.372 30.3816C122.372 28.3276 120.707 26.6624 118.653 26.6624C116.599 26.6624 114.934 28.3276 114.934 30.3816C114.934 32.4357 116.599 34.1008 118.653 34.1008Z" fill="#B9189C"/>
<path d="M108.995 28.1896C111.053 28.1896 112.721 26.5216 112.721 24.4639C112.721 22.4062 111.053 20.7381 108.995 20.7381C106.937 20.7381 105.269 22.4062 105.269 24.4639C105.269 26.5216 106.937 28.1896 108.995 28.1896Z" fill="#BB189C"/>
<path d="M98.2893 24.0755C100.351 24.0755 102.022 22.4045 102.022 20.3431C102.022 18.2818 100.351 16.6107 98.2893 16.6107C96.2279 16.6107 94.5569 18.2818 94.5569 20.3431C94.5569 22.4045 96.2279 24.0755 98.2893 24.0755Z" fill="#BD199B"/>
<path d="M86.7448 21.9628C88.8098 21.9628 90.4838 20.2888 90.4838 18.2238C90.4838 16.1589 88.8098 14.4849 86.7448 14.4849C84.6799 14.4849 83.0059 16.1589 83.0059 18.2238C83.0059 20.2888 84.6799 21.9628 86.7448 21.9628Z" fill="#BF199A"/>
<path d="M74.749 22.0454C76.8176 22.0454 78.4946 20.3685 78.4946 18.2998C78.4946 16.2312 76.8176 14.5543 74.749 14.5543C72.6804 14.5543 71.0034 16.2312 71.0034 18.2998C71.0034 20.3685 72.6804 22.0454 74.749 22.0454Z" fill="#C11A99"/>
<path d="M63.3046 24.2956C65.3762 24.2956 67.0556 22.6161 67.0556 20.5445C67.0556 18.4728 65.3762 16.7934 63.3046 16.7934C61.2329 16.7934 59.5535 18.4728 59.5535 20.5445C59.5535 22.6161 61.2329 24.2956 63.3046 24.2956Z" fill="#C31A99"/>
<path d="M52.7054 28.5187C54.7808 28.5187 56.4631 26.8363 56.4631 24.761C56.4631 22.6857 54.7808 21.0033 52.7054 21.0033C50.6301 21.0033 48.9478 22.6857 48.9478 24.761C48.9478 26.8363 50.6301 28.5187 52.7054 28.5187Z" fill="#C51A98"/>
<path d="M43.1559 34.5102C45.2348 34.5102 46.9202 32.8248 46.9202 30.7459C46.9202 28.6669 45.2348 26.9816 43.1559 26.9816C41.0769 26.9816 39.3916 28.6669 39.3916 30.7459C39.3916 32.8248 41.0769 34.5102 43.1559 34.5102Z" fill="#C71B97"/>
<path d="M34.8578 42.064C36.9404 42.064 38.6287 40.3757 38.6287 38.2931C38.6287 36.2105 36.9404 34.5222 34.8578 34.5222C32.7752 34.5222 31.0869 36.2105 31.0869 38.2931C31.0869 40.3757 32.7752 42.064 34.8578 42.064Z" fill="#C91B96"/>
<path d="M28.015 50.9801C30.1013 50.9801 31.7925 49.2889 31.7925 47.2026C31.7925 45.1164 30.1013 43.4251 28.015 43.4251C25.9288 43.4251 24.2375 45.1164 24.2375 47.2026C24.2375 49.2889 25.9288 50.9801 28.015 50.9801Z" fill="#CB1C96"/>
<path d="M22.8316 61.0495C24.9209 61.0495 26.6146 59.3558 26.6146 57.2665C26.6146 55.1772 24.9209 53.4835 22.8316 53.4835C20.7423 53.4835 19.0486 55.1772 19.0486 57.2665C19.0486 59.3558 20.7423 61.0495 22.8316 61.0495Z" fill="#CD1C95"/>
<path d="M19.5108 72.076C21.6037 72.076 23.3004 70.3794 23.3004 68.2864C23.3004 66.1935 21.6037 64.4968 19.5108 64.4968C17.4179 64.4968 15.7212 66.1935 15.7212 68.2864C15.7212 70.3794 17.4179 72.076 19.5108 72.076Z" fill="#CF1D94"/>
<path d="M18.2559 83.8518C20.3525 83.8518 22.0521 82.1522 22.0521 80.0556C22.0521 77.959 20.3525 76.2594 18.2559 76.2594C16.1593 76.2594 14.4597 77.959 14.4597 80.0556C14.4597 82.1522 16.1593 83.8518 18.2559 83.8518Z" fill="#D11D93"/>
<path d="M19.2154 95.7113C21.3156 95.7113 23.0182 94.0088 23.0182 91.9085C23.0182 89.8083 21.3156 88.1057 19.2154 88.1057C17.1152 88.1057 15.4126 89.8083 15.4126 91.9085C15.4126 94.0088 17.1152 95.7113 19.2154 95.7113Z" fill="#D31D93"/>
<path d="M22.2678 106.849C24.371 106.849 26.0761 105.144 26.0761 103.041C26.0761 100.938 24.371 99.2325 22.2678 99.2325C20.1645 99.2325 18.4595 100.938 18.4595 103.041C18.4595 105.144 20.1645 106.849 22.2678 106.849Z" fill="#D51E92"/>
<path d="M27.2121 117.063C29.319 117.063 31.027 115.355 31.027 113.248C31.027 111.141 29.319 109.433 27.2121 109.433C25.1052 109.433 23.3972 111.141 23.3972 113.248C23.3972 115.355 25.1052 117.063 27.2121 117.063Z" fill="#D71E91"/>
<path d="M33.8413 126.146C35.9518 126.146 37.6628 124.435 37.6628 122.324C37.6628 120.214 35.9518 118.503 33.8413 118.503C31.7307 118.503 30.0198 120.214 30.0198 122.324C30.0198 124.435 31.7307 126.146 33.8413 126.146Z" fill="#D91F90"/>
<path d="M41.9553 133.897C44.0695 133.897 45.7834 132.183 45.7834 130.069C45.7834 127.954 44.0695 126.241 41.9553 126.241C39.8411 126.241 38.1272 127.954 38.1272 130.069C38.1272 132.183 39.8411 133.897 41.9553 133.897Z" fill="#DB1F90"/>
<path d="M51.3474 140.11C53.4653 140.11 55.1821 138.394 55.1821 136.276C55.1821 134.158 53.4653 132.441 51.3474 132.441C49.2296 132.441 47.5127 134.158 47.5127 136.276C47.5127 138.394 49.2296 140.11 51.3474 140.11Z" fill="#DD1F8F"/>
<path d="M61.8156 144.582C63.9364 144.582 65.6558 142.863 65.6558 140.742C65.6558 138.621 63.9364 136.902 61.8156 136.902C59.6947 136.902 57.9753 138.621 57.9753 140.742C57.9753 142.863 59.6947 144.582 61.8156 144.582Z" fill="#DF208E"/>
<path d="M73.1569 147.113C75.2814 147.113 77.0037 145.391 77.0037 143.266C77.0037 141.142 75.2814 139.419 73.1569 139.419C71.0323 139.419 69.3101 141.142 69.3101 143.266C69.3101 145.391 71.0323 147.113 73.1569 147.113Z" fill="#E1208D"/>
<path d="M85.1107 147.499C87.2389 147.499 88.9642 145.774 88.9642 143.646C88.9642 141.518 87.2389 139.793 85.1107 139.793C82.9826 139.793 81.2573 141.518 81.2573 143.646C81.2573 145.774 82.9826 147.499 85.1107 147.499Z" fill="#E3218D"/>
<path d="M96.7028 145.69C98.8346 145.69 100.563 143.962 100.563 141.83C100.563 139.698 98.8346 137.97 96.7028 137.97C94.571 137.97 92.8428 139.698 92.8428 141.83C92.8428 143.962 94.571 145.69 96.7028 145.69Z" fill="#E5218C"/>
<path d="M107.493 141.869C109.629 141.869 111.36 140.138 111.36 138.002C111.36 135.867 109.629 134.135 107.493 134.135C105.358 134.135 103.627 135.867 103.627 138.002C103.627 140.138 105.358 141.869 107.493 141.869Z" fill="#E7228B"/>
<path d="M117.274 136.236C119.412 136.236 121.146 134.503 121.146 132.364C121.146 130.226 119.412 128.492 117.274 128.492C115.135 128.492 113.402 130.226 113.402 132.364C113.402 134.503 115.135 136.236 117.274 136.236Z" fill="#E9228A"/>
<path d="M125.845 129C127.987 129 129.723 127.264 129.723 125.121C129.723 122.979 127.987 121.243 125.845 121.243C123.702 121.243 121.966 122.979 121.966 125.121C121.966 127.264 123.702 129 125.845 129Z" fill="#EB228A"/>
<path d="M133.002 120.361C135.148 120.361 136.888 118.622 136.888 116.476C136.888 114.33 135.148 112.591 133.002 112.591C130.856 112.591 129.117 114.33 129.117 116.476C129.117 118.622 130.856 120.361 133.002 120.361Z" fill="#ED2389"/>
<path d="M138.542 110.524C140.692 110.524 142.434 108.782 142.434 106.632C142.434 104.483 140.692 102.74 138.542 102.74C136.393 102.74 134.65 104.483 134.65 106.632C134.65 108.782 136.393 110.524 138.542 110.524Z" fill="#EF2388"/>
<path d="M142.261 99.6891C144.414 99.6891 146.159 97.9442 146.159 95.7917C146.159 93.6392 144.414 91.8943 142.261 91.8943C140.109 91.8943 138.364 93.6392 138.364 95.7917C138.364 97.9442 140.109 99.6891 142.261 99.6891Z" fill="#F12487"/>
<path d="M143.956 88.0628C146.112 88.0628 147.86 86.3149 147.86 84.1588C147.86 82.0027 146.112 80.2548 143.956 80.2548C141.8 80.2548 140.052 82.0027 140.052 84.1588C140.052 86.3149 141.8 88.0628 143.956 88.0628Z" fill="#F32487"/>
<path d="M144.089 75.8249C146.249 75.8249 148 74.074 148 71.9143C148 69.7545 146.249 68.0036 144.089 68.0036C141.929 68.0036 140.178 69.7545 140.178 71.9143C140.178 74.074 141.929 75.8249 144.089 75.8249Z" fill="#F52586"/>
<path d="M141.024 65.4872C143.187 65.4872 144.941 63.7334 144.941 61.5699C144.941 59.4065 143.187 57.6527 141.024 57.6527C138.86 57.6527 137.106 59.4065 137.106 61.5699C137.106 63.7334 138.86 65.4872 141.024 65.4872Z" fill="#F72585"/>
</svg>
