<svg width="24" height="17" viewBox="0 0 24 17" fill="none" xmlns="http://www.w3.org/2000/svg">
<g clip-path="url(#clip0_61_13443)">
<mask id="mask0_61_13443" style="mask-type:luminance" maskUnits="userSpaceOnUse" x="0" y="0" width="24" height="17">
<path d="M0.0012207 0H23.9989V17H0.0012207V0Z" fill="white"/>
</mask>
<g mask="url(#mask0_61_13443)">
<path fill-rule="evenodd" clip-rule="evenodd" d="M-1.5 0H25.5V17H-1.5V0Z" fill="#165D31"/>
<path fill-rule="evenodd" clip-rule="evenodd" d="M5.30273 4.81784C5.27461 5.21628 5.23242 5.91354 5.59453 5.98659C6.02695 6.02643 5.78789 5.29596 5.94609 5.16315C5.97422 5.09674 6.02695 5.09674 6.03047 5.17975V5.80065C6.03047 5.99987 6.17109 6.05964 6.27656 6.09948C6.38906 6.09284 6.46641 6.09948 6.50859 6.19909L6.56484 7.27155C6.56484 7.27155 6.825 7.3446 6.83906 6.67057C6.84961 6.27213 6.75469 5.94342 6.81094 5.86706C6.81094 5.79069 6.91641 5.78737 6.98672 5.82389C7.09922 5.89694 7.14844 5.98991 7.32422 5.95671C7.59141 5.88366 7.75312 5.76081 7.75664 5.56823C7.75136 5.37898 7.70967 5.19221 7.63359 5.01706C7.64766 4.98385 7.58437 4.89421 7.59844 4.861C7.64414 4.93405 7.71797 4.92741 7.73203 4.861C7.68633 4.72155 7.61602 4.58542 7.50352 4.52897C7.40859 4.44928 7.26797 4.46256 7.22227 4.62858C7.19414 4.81784 7.29258 5.0403 7.43672 5.22624C7.46836 5.29596 7.51055 5.41549 7.49297 5.52174C7.41562 5.56491 7.33828 5.54499 7.27148 5.4819C7.27148 5.4819 7.06055 5.33249 7.06055 5.29596C7.1168 4.95729 7.07109 4.91745 7.03945 4.82116C7.01836 4.69167 6.95156 4.6485 6.89883 4.56217C6.84609 4.50905 6.77578 4.50905 6.74062 4.56217C6.6457 4.71491 6.69141 5.04362 6.7582 5.19303C6.80742 5.32917 6.88125 5.41549 6.84609 5.41549C6.81797 5.49186 6.7582 5.47194 6.7125 5.38229C6.66105 5.19363 6.63623 4.99937 6.63867 4.80456C6.62109 4.65182 6.6 4.32643 6.49102 4.2401C6.42773 4.16042 6.33281 4.20026 6.29766 4.27331C6.28837 4.42164 6.2919 4.57044 6.3082 4.71823C6.37852 4.96393 6.40312 5.18307 6.43828 5.4321C6.44883 5.76745 6.23437 5.57819 6.24492 5.40885C6.29104 5.19597 6.28744 4.97615 6.23437 4.76471C6.19922 4.67839 6.16055 4.65846 6.07266 4.67174C6.00586 4.67174 5.83359 4.84772 5.78437 5.14655C5.78437 5.14655 5.74219 5.29928 5.72461 5.43542C5.7 5.58815 5.59453 5.70104 5.51719 5.41549C5.45391 5.20632 5.41172 4.69831 5.30625 4.81784H5.30273Z" fill="white"/>
<path fill-rule="evenodd" clip-rule="evenodd" d="M6.48047 6.44814L5.35547 6.95947C5.36602 6.71709 5.88633 6.28213 6.24492 6.27881C6.47344 6.28213 6.41719 6.36182 6.47695 6.44814H6.48047Z" fill="white"/>
<path fill-rule="evenodd" clip-rule="evenodd" d="M6.28003 6.77996C5.68941 8.22429 7.6687 8.42683 7.89019 6.83972C7.91128 6.77332 7.99566 6.71023 8.00972 6.81648C7.96402 8.25418 6.47691 8.35047 6.22378 7.8989C6.16423 7.74353 6.13447 7.57937 6.13589 7.41414C6.10073 7.13191 5.94253 7.24148 5.91792 7.52039C5.89331 7.67644 5.90034 7.71961 5.90034 7.86902C5.97769 9.00457 7.8937 8.51648 8.20659 7.58015C8.37183 7.06219 8.17847 6.68035 8.26636 6.68035C8.4562 6.87293 8.72339 6.70691 8.78316 6.64051C8.80777 6.6073 8.87105 6.58406 8.91323 6.62722C9.06089 6.72683 9.32105 6.68035 9.3773 6.50437C9.40894 6.3284 9.43355 6.1491 9.44058 5.96648C9.31753 5.99969 9.22964 6.02293 9.21909 6.07273L9.19448 6.22547C9.18394 6.27527 9.08198 6.27527 9.07495 6.21219C9.02925 6.01297 8.83941 5.98972 8.72339 6.29519C8.64956 6.35496 8.50894 6.36824 8.49487 6.27859C8.51245 6.07273 8.42456 6.04617 8.24878 6.14246L8.08003 4.94051C8.15034 4.94051 8.22066 4.99031 8.28745 4.91062C8.21714 4.6948 8.05894 4.25652 7.97105 4.22332C7.93237 4.17683 7.89722 4.20672 7.84097 4.22C7.74956 4.24656 7.66519 4.31961 7.69331 4.4657C7.79878 5.08992 7.86909 5.56472 7.97808 6.19226C7.99566 6.26199 7.93237 6.35828 7.848 6.34832C7.70737 6.25867 7.67222 6.07605 7.42613 6.08269C7.25034 6.08269 7.05347 6.26531 7.02886 6.43797C6.99722 6.57742 6.98667 6.72683 7.02886 6.84637C7.15191 6.98582 7.29956 6.97254 7.42964 6.94265C7.53511 6.89949 7.623 6.79988 7.66167 6.82312C7.68628 6.85301 7.66519 7.18504 7.15894 7.43738C6.85308 7.57019 6.60698 7.59676 6.47691 7.36101C6.39605 7.2116 6.48394 6.65047 6.28003 6.77996Z" fill="white"/>
<path fill-rule="evenodd" clip-rule="evenodd" d="M8.80071 5.31231C8.91673 5.27246 9.47923 4.66153 9.47923 4.66153L9.39485 4.59512C9.36321 4.57188 9.36673 4.54532 9.39485 4.52207C9.53548 4.44239 9.48978 4.27637 9.41946 4.19668C9.37173 4.17471 9.31922 4.16356 9.26612 4.16414C9.21302 4.16472 9.16079 4.177 9.1136 4.2C9.01517 4.28965 8.99407 4.43243 9.07142 4.51875C9.14524 4.55196 9.21907 4.625 9.16985 4.66485C8.93782 4.89727 8.30853 5.29903 8.38235 5.31231C8.39642 5.33223 8.78665 5.33223 8.7972 5.31231H8.80071ZM5.39056 7.47051C5.17962 7.78926 5.16204 8.26407 5.27806 8.40684C5.34134 8.47324 5.44329 8.50313 5.51712 8.47989C5.65071 8.42676 5.71048 8.1711 5.67884 8.08145C5.63313 8.01504 5.59798 8.00508 5.55228 8.05821C5.46087 8.2375 5.4222 8.11465 5.41165 8.01504C5.40157 7.84635 5.411 7.67712 5.43978 7.51035C5.46438 7.3709 5.43978 7.41074 5.39056 7.47051ZM14.4292 6.9625C14.2253 6.54414 13.9406 6.13242 13.8527 5.97637C13.5787 5.56732 13.2878 5.16858 12.9808 4.78106C12.7628 4.53535 13.3394 4.88399 12.9105 4.39258L12.5976 4.14356C12.5273 4.09707 12.3585 4.01075 12.3304 4.1502C12.3163 4.27637 12.3234 4.34278 12.3445 4.44571C12.362 4.51211 12.4675 4.62832 12.5202 4.69473C13.241 5.59635 13.874 6.55761 14.4117 7.5668C14.5031 7.52364 14.482 7.03223 14.4292 6.9625Z" fill="white"/>
<path fill-rule="evenodd" clip-rule="evenodd" d="M13.5329 8.35063C13.4907 8.3938 13.6314 8.57641 13.8142 8.57641C14.1165 8.54321 14.3837 8.38384 14.6298 7.95884C14.7298 7.81746 14.7936 7.65604 14.8161 7.48735C14.8459 6.68132 14.7775 5.87472 14.6122 5.08344C14.6017 5.01704 14.6122 4.93735 14.6193 4.91743C14.6403 4.89419 14.7071 4.91743 14.7423 4.86098C14.795 4.81118 14.6017 4.39614 14.4962 4.24009C14.461 4.16704 14.4435 4.12055 14.3802 4.24673C14.3038 4.38595 14.2675 4.54165 14.2747 4.69829C14.4189 5.64458 14.4646 6.47133 14.556 7.41762C14.5665 7.51059 14.5525 7.64341 14.4857 7.69653C14.2204 7.97548 13.8957 8.19838 13.5329 8.35063ZM17.6286 8.34731C17.4107 8.46684 17.4107 8.60298 17.5864 8.6063C17.8888 8.57309 18.2474 8.54985 18.4935 8.1979C18.5804 8.03213 18.6306 7.85137 18.6411 7.66665C18.6854 6.87302 18.6299 6.07724 18.4759 5.29594C18.4689 5.22954 18.4372 5.07348 18.4478 5.05356C18.4689 5.00708 18.5673 5.05688 18.6025 5.00376C18.6517 4.95395 18.3458 4.58208 18.2368 4.4227C18.2017 4.34966 18.1876 4.30317 18.1208 4.42934C18.05 4.56984 18.0279 4.72784 18.0575 4.88091C18.2193 5.9102 18.3388 6.68052 18.3634 7.59028C18.3493 7.67661 18.3458 7.72309 18.3036 7.83266C18.2087 7.94555 18.1032 8.09165 18.0048 8.16137C17.9064 8.22778 17.6954 8.29419 17.6286 8.34731Z" fill="white"/>
<path fill-rule="evenodd" clip-rule="evenodd" d="M17.7902 7.42762C17.7902 7.18523 17.7937 6.97938 17.7867 6.79676C17.7844 6.6421 17.7485 6.48953 17.6812 6.34852C17.6179 6.21238 17.6566 6.10281 17.6249 5.95672C17.5968 5.81063 17.6038 5.59148 17.5617 5.42215C17.5476 5.35574 17.5124 5.13992 17.523 5.11668C17.5406 5.0702 17.6074 5.11668 17.6425 5.06355C17.6917 5.01375 17.4667 4.4659 17.3542 4.30984C17.3156 4.24012 17.2382 4.26336 17.1503 4.37625C17.0624 4.45262 17.0941 4.62195 17.1292 4.78465C17.3437 5.85711 17.5089 6.82996 17.4738 7.8493C17.4597 7.93563 17.7902 7.59031 17.7902 7.42762ZM16.1835 6.09949C16.0464 6.09285 15.7617 5.84383 15.6773 5.70105C15.6635 5.66616 15.6576 5.62891 15.66 5.59173C15.6624 5.55455 15.6731 5.51827 15.6913 5.48523C15.7441 5.45203 15.8214 5.41883 15.8812 5.45203C15.8812 5.45203 15.941 5.53172 15.9304 5.54168C16.0007 5.57488 16.0359 5.55828 16.0429 5.5284C16.0464 5.47859 16.0218 5.44871 16.0218 5.39559C16.0535 5.24285 16.2327 5.21961 16.3031 5.3159C16.3523 5.37566 16.3734 5.49852 16.3769 5.58152C16.3769 5.62469 16.3066 5.57488 16.2609 5.58152C16.2222 5.59481 16.2117 5.64129 16.2081 5.68113C16.2011 5.7907 16.187 5.96668 16.1835 6.09617V6.09949ZM13.6593 7.69324C13.6945 7.36785 13.6453 6.7868 13.6417 6.59422C13.6229 6.09895 13.5795 5.60479 13.5117 5.11336C13.4695 4.83445 13.6312 5.14324 13.6101 4.98055C13.5574 4.70496 13.3956 4.5157 13.2023 4.26668C13.1425 4.18367 13.1425 4.16707 13.0476 4.2866C12.9421 4.50906 13.0335 4.66512 13.0617 4.84109C13.1988 5.41219 13.2796 5.9368 13.3183 6.45809C13.3588 6.9996 13.3635 7.54297 13.3324 8.08504C13.4378 8.08836 13.5995 7.92898 13.6593 7.69324Z" fill="white"/>
<path fill-rule="evenodd" clip-rule="evenodd" d="M18.2578 7.17199C18.0153 6.78683 17.6532 6.37511 17.5547 6.21906C17.2287 5.7891 16.8863 5.37047 16.5282 4.96398C16.2293 4.66515 16.6688 4.91417 16.4719 4.68175C16.3067 4.51241 16.261 4.45597 16.1168 4.35304C16.0465 4.30988 16.0043 4.22687 15.9762 4.36964C15.965 4.49331 15.9626 4.61755 15.9692 4.74152C15.9692 4.79796 16.0325 4.90753 16.0887 4.97394C16.8164 5.82062 17.6145 6.6839 18.2543 7.76964C18.3457 7.72648 18.3141 7.23839 18.2543 7.17199H18.2578Z" fill="white"/>
<path fill-rule="evenodd" clip-rule="evenodd" d="M7.3101 6.46487C7.29252 6.49475 7.25385 6.53127 7.26791 6.5678C7.29252 6.601 7.31713 6.61096 7.35932 6.61096C7.39799 6.61096 7.45424 6.62092 7.46479 6.601C7.48588 6.57776 7.49994 6.5346 7.48588 6.49143C7.44369 6.39182 7.33119 6.43167 7.3101 6.46487Z" fill="#165D31"/>
<path fill-rule="evenodd" clip-rule="evenodd" d="M15.4524 12.0361C15.7759 12.0493 15.9868 12.0527 16.2716 12.0826L16.6091 12.0493C16.9817 12.0161 16.9958 12.5507 16.9958 12.5507C16.9958 12.8661 16.8657 12.8827 16.7005 12.9159C16.6056 12.9292 16.5599 12.8628 16.5071 12.7964C16.4276 12.8205 16.3429 12.8251 16.261 12.8097C16.1239 12.8031 15.9903 12.8031 15.8567 12.7931C15.7161 12.7831 15.6388 12.8097 15.4946 12.7964C15.4665 12.8396 15.4243 12.8993 15.3399 12.8827C15.2696 12.8728 15.1817 12.6835 15.2063 12.5341C15.2591 12.4279 15.2415 12.4644 15.2415 12.4179C13.9196 12.3847 12.5872 12.3283 11.2935 12.3449C10.281 12.3482 9.28252 12.388 8.28057 12.4279C7.74619 12.4212 7.33838 12.3415 7.05713 11.9531C7.08525 11.9531 8.42119 12.0228 8.81143 11.9995C9.53213 11.9929 10.1931 11.9365 10.9278 11.9165C12.3763 11.9398 13.8142 11.9398 15.2626 12.0361C15.122 11.9464 15.122 11.7372 15.3329 11.6841C15.3505 11.6708 15.361 11.787 15.3927 11.7837C15.5649 11.7738 15.4876 11.9929 15.4524 12.0361ZM9.63057 4.49232C9.4126 5.08333 9.75713 5.73411 9.99619 5.67103C10.172 5.73743 10.2774 5.42532 10.3478 5.08665C10.4005 4.99036 10.4356 4.9804 10.4603 5.03021C10.4532 5.48177 10.4954 5.5847 10.6185 5.72083C10.8927 5.92005 11.1212 5.7474 11.1388 5.73079L11.3497 5.52825C11.3989 5.47845 11.4622 5.47845 11.529 5.51829C11.5958 5.57474 11.5853 5.67103 11.7259 5.73743C11.8454 5.78392 12.095 5.75072 12.1548 5.65443C12.2321 5.52493 12.2532 5.48177 12.2884 5.43529C12.3446 5.36556 12.4396 5.39544 12.4396 5.41868C12.429 5.45853 12.3728 5.49505 12.4114 5.5681C12.4817 5.61458 12.4958 5.5847 12.5345 5.57474C12.6751 5.50833 12.7806 5.22279 12.7806 5.22279C12.7841 5.11654 12.7208 5.12318 12.6786 5.14974L12.5696 5.21947C12.4993 5.22943 12.3692 5.27259 12.3024 5.1763C12.2356 5.06341 12.2356 4.90072 12.1864 4.7845C12.1864 4.77786 12.095 4.60189 12.1794 4.59193C12.2216 4.59857 12.3095 4.62181 12.3235 4.55208C12.3657 4.48236 12.2321 4.28646 12.1372 4.18685C12.0563 4.10384 11.9438 4.09388 11.8349 4.18021C11.7575 4.24661 11.7681 4.31966 11.754 4.38939C11.7407 4.43936 11.7401 4.4916 11.7523 4.54182C11.7645 4.59204 11.7892 4.6388 11.8243 4.67825C11.9017 4.81771 12.0388 5.00032 11.9931 5.25931C11.9931 5.25931 11.9122 5.37884 11.7716 5.36224C11.7118 5.35228 11.6169 5.32904 11.5677 4.97044C11.529 4.70482 11.5747 4.3263 11.4552 4.15032C11.4095 4.04075 11.3778 3.93782 11.2724 4.12044C11.2442 4.19349 11.1212 4.30306 11.2091 4.52552C11.2923 4.72599 11.3165 4.94395 11.2794 5.15638C11.2267 5.22943 11.2161 5.25267 11.1493 5.3224C11.0579 5.422 10.956 5.39544 10.8786 5.35892C10.8083 5.31575 10.7521 5.29251 10.7169 5.1431C10.7239 4.91068 10.738 4.52884 10.6923 4.44915C10.6255 4.32298 10.5165 4.36947 10.4708 4.40931C10.2617 4.62873 10.1216 4.89899 10.0665 5.18958C10.0032 5.38216 9.93643 5.32572 9.89072 5.24935C9.77822 5.14974 9.76768 4.36283 9.63057 4.49232Z" fill="white"/>
<path fill-rule="evenodd" clip-rule="evenodd" d="M10.2914 5.78065C10.3934 5.71425 10.3476 5.66776 10.4953 5.80722C10.6859 6.1257 10.7965 6.48124 10.8187 6.84647C10.8117 6.9328 10.875 6.98593 10.9066 6.966C10.9207 6.76679 11.4375 6.48788 11.9121 6.44804C11.9824 6.43143 11.9473 6.30194 11.9578 6.23554C11.9297 5.98651 12.1055 5.76073 12.3516 5.74413C12.6891 5.79061 12.8016 5.95995 12.8086 6.21561C12.7699 6.71366 12.2215 6.79667 11.9156 6.83651C11.8699 6.85311 11.8488 6.87304 11.9156 6.89628L13.2023 6.90292L13.2691 6.93612C13.2762 6.96932 13.248 6.94276 13.1988 7.02245C13.128 7.13989 13.0837 7.2699 13.0687 7.40429C12.6855 7.52382 12.2883 7.5703 11.8875 7.62011C11.7469 7.68651 11.6766 7.77616 11.7047 7.87577C11.7539 7.98534 12.0633 8.09823 12.0633 8.10155C12.123 8.13475 12.1898 8.21776 12.0457 8.3871C11.4199 8.36054 10.9312 8.10819 10.7625 7.75292C10.7133 7.7164 10.657 7.75292 10.6219 7.7994C10.3758 8.09823 10.1367 8.36386 9.71835 8.50995C9.47226 8.56971 9.21562 8.47343 9.09609 8.32069C9.01523 8.23104 9.01874 8.13475 8.99062 8.11483C8.85351 8.17128 7.69335 8.63612 7.84101 8.41698C8.12226 8.13475 8.61445 7.92225 9.04335 7.64335C9.07499 7.54706 9.13124 7.22831 9.29999 7.12538C9.31054 7.12538 9.27538 7.31132 9.2789 7.391C9.2789 7.45741 9.27187 7.48065 9.28593 7.46405C9.31757 7.44745 9.83788 7.05897 9.88359 6.93944C9.9328 6.87304 9.89413 6.70038 9.89413 6.69374C9.7957 6.45468 9.65859 6.43475 9.60937 6.31522C9.56366 6.15917 9.58476 5.97987 9.67968 5.92675C9.76405 5.85702 9.86249 5.86366 9.95741 5.94335C10.0629 6.033 10.1543 6.20897 10.1824 6.33847C10.1648 6.38827 10.0418 6.30526 10.0066 6.3285C10.0743 6.40195 10.1193 6.49153 10.1367 6.58749C10.207 6.85975 10.1859 6.966 10.1156 7.14198C9.88359 7.6035 9.58827 7.73964 9.32812 7.91229C9.32109 7.91229 9.31757 8.0285 9.41249 8.09159C9.44765 8.12479 9.58476 8.14139 9.74296 8.09159C10.0809 7.91432 10.3542 7.64463 10.5269 7.31796C10.5568 7.06938 10.528 6.81765 10.4426 6.58085C10.3406 6.35839 10.2211 6.04296 10.2211 6.03632C10.2176 5.89686 10.2281 5.85038 10.2914 5.78065ZM6.92343 4.49901C7.07109 4.56542 7.35234 4.53554 7.33827 4.30975L7.33124 4.20682C7.30312 4.14042 7.21874 4.15702 7.20116 4.22343C7.19413 4.24667 7.21171 4.28319 7.19062 4.29315C7.17655 4.30643 7.13085 4.29979 7.13085 4.23671C7.13085 4.21679 7.11679 4.19686 7.10624 4.18358C7.09921 4.17694 7.09218 4.17694 7.0746 4.17694C7.05351 4.17694 7.05351 4.18026 7.04296 4.19686C7.03945 4.21347 7.03241 4.23007 7.03241 4.24999C7.03241 4.27323 7.01835 4.27987 7.00429 4.28319C6.9832 4.28319 6.98671 4.28319 6.96913 4.27655C6.9621 4.26659 6.95155 4.26327 6.95155 4.24335L6.94101 4.19022C6.93398 4.18026 6.91991 4.17362 6.90585 4.1703C6.82499 4.1703 6.81796 4.25995 6.82499 4.29315C6.81796 4.29979 6.81445 4.45585 6.92343 4.49901Z" fill="white"/>
<path fill-rule="evenodd" clip-rule="evenodd" d="M11.2653 6.2322C11.4129 6.2986 11.768 6.26208 11.6801 6.04626L11.6731 5.94001C11.6415 5.8736 11.5606 5.89021 11.543 5.95993C11.536 5.97985 11.5536 6.01638 11.529 6.02634C11.5184 6.03962 11.4692 6.03298 11.4727 5.97321C11.4727 5.95329 11.4586 5.93005 11.4481 5.91677C11.4376 5.91345 11.434 5.91013 11.4129 5.91013C11.3954 5.91013 11.3954 5.91677 11.3848 5.93337C11.3778 5.94997 11.3743 5.96657 11.3743 5.9865C11.3708 6.00642 11.3602 6.01306 11.3426 6.0197C11.3251 6.0197 11.3286 6.0197 11.3145 6.00974C11.304 5.99978 11.2934 5.99646 11.2934 5.97985L11.2829 5.92673C11.2758 5.91677 11.2618 5.91013 11.2477 5.90681C11.1668 5.90681 11.1598 5.99314 11.1633 6.02634C11.1598 6.03298 11.1563 6.19235 11.2688 6.2322H11.2653ZM13.7965 5.51501C13.9442 5.58142 14.2219 5.55153 14.2114 5.32907L14.2043 5.22282C14.1727 5.15642 14.0918 5.17302 14.0743 5.23942C14.0672 5.26267 14.0848 5.29919 14.0602 5.31247C14.0497 5.32243 14.0004 5.31579 14.004 5.25271C14.004 5.23278 13.9899 5.21286 13.9793 5.19958C13.9688 5.19294 13.9653 5.19294 13.9442 5.19294C13.9266 5.19294 13.9266 5.19958 13.9161 5.21618L13.9055 5.26599C13.902 5.28923 13.8915 5.29919 13.8739 5.29919C13.8563 5.29919 13.8598 5.29919 13.8458 5.29255C13.8352 5.28259 13.8247 5.27927 13.8247 5.26267C13.8247 5.24607 13.8211 5.2195 13.8141 5.20622C13.8071 5.19626 13.793 5.19294 13.779 5.18962C13.6981 5.18962 13.6911 5.27595 13.6946 5.30915C13.6911 5.31579 13.6876 5.47185 13.8001 5.51501H13.7965ZM15.1079 7.31794C14.8512 7.59353 14.9637 8.04841 15.0235 8.14802C15.1079 8.30739 15.1747 8.41032 15.3399 8.49001C15.4911 8.59294 15.6106 8.52985 15.6739 8.45681C15.8251 8.30739 15.8286 7.92556 15.8989 7.85251C15.9481 7.71306 16.0747 7.7363 16.1344 7.79939C16.1903 7.87435 16.2653 7.93486 16.3524 7.97536C16.493 8.09157 16.6618 8.11481 16.8305 8.00856C16.943 7.94548 17.0168 7.86911 17.0836 7.71306C17.154 7.52712 17.1188 6.66384 17.1012 6.15251L16.9536 5.43864C16.9536 5.432 16.936 5.09997 16.9184 5.0236C16.9184 4.9904 16.9079 4.98044 16.943 4.98376C16.9817 5.01696 16.9852 5.01696 17.0133 5.02692C17.0485 5.03357 17.0836 4.97048 17.059 4.91735L16.7075 4.29978C16.6793 4.27321 16.6407 4.24665 16.595 4.30642C16.568 4.32947 16.5465 4.35768 16.532 4.38916C16.5175 4.42064 16.5102 4.45469 16.5106 4.48903C16.5211 4.63513 16.5458 4.78454 16.5563 4.93064L16.6969 5.68103C16.7426 6.21228 16.7532 6.65056 16.7989 7.18513C16.7918 7.41091 16.718 7.60681 16.6477 7.63669C16.6477 7.63669 16.5422 7.69314 16.4719 7.63005C16.4192 7.61013 16.2118 7.30134 16.2118 7.30134C16.1063 7.21169 16.036 7.23493 15.9622 7.30134C15.7512 7.49392 15.6598 7.84587 15.5157 8.09157C15.4805 8.14802 15.3751 8.19118 15.2626 8.08825C14.9743 7.71306 15.143 7.18181 15.1079 7.31794ZM13.8633 4.20681C13.9969 4.25661 14.0883 4.51228 14.0602 4.63845C14.0321 4.78786 13.9618 4.95388 13.9126 4.93396C13.8563 4.91403 13.9477 4.78122 13.895 4.64177C13.8668 4.5488 13.684 4.38278 13.7051 4.3363C13.67 4.23337 13.7825 4.18689 13.8633 4.20349V4.20681Z" fill="white"/>
<path fill-rule="evenodd" clip-rule="evenodd" d="M15.5366 7.47052C15.5612 7.16505 15.5155 6.97911 15.5085 6.79982C15.5015 6.62052 15.294 5.25255 15.2518 5.11974C15.1991 4.86075 15.4522 5.08653 15.4241 4.9338C15.3362 4.74786 15.1218 4.47228 15.055 4.30958C15.0128 4.24317 15.0304 4.17677 14.939 4.29298C14.8602 4.49673 14.8326 4.71493 14.8581 4.93048C15.0761 6.00294 15.2976 6.89278 15.2624 7.91212C15.3679 7.91212 15.4839 7.68966 15.5366 7.47052ZM17.8007 4.63829C17.9237 4.69474 17.994 5.01349 17.98 5.10314C17.9554 5.26915 17.8921 5.44845 17.8464 5.42521C17.7936 5.40528 17.8569 5.1795 17.8323 5.10978C17.8042 5.01017 17.639 4.83087 17.6565 4.77774C17.6214 4.66485 17.7268 4.61837 17.8007 4.63829ZM8.81122 6.89278C8.92724 6.93595 8.99755 7.16837 8.98701 7.23478C8.95888 7.35763 8.89911 7.49044 8.85341 7.47052C8.80771 7.45724 8.86396 7.29122 8.84286 7.2381C8.83232 7.11525 8.6706 7.04884 8.67411 6.99571C8.64599 6.8961 8.74443 6.8795 8.81474 6.89278H8.81122Z" fill="white"/>
<path fill-rule="evenodd" clip-rule="evenodd" d="M11.6099 7.24482C11.7575 7.25146 11.8313 7.36436 11.6942 7.41084C11.5536 7.454 11.4235 7.49053 11.42 7.67646C11.4728 7.94209 11.3497 7.84912 11.2794 7.81592C11.195 7.75615 10.956 7.6167 10.9208 7.31787C10.9173 7.24814 10.9771 7.18506 11.072 7.18506C11.2126 7.22158 11.4235 7.2249 11.6099 7.24482Z" fill="#165D31"/>
<path fill-rule="evenodd" clip-rule="evenodd" d="M5.72117 4.13069C5.88992 4.17717 5.90047 4.41624 5.88992 4.48596C5.86531 4.61213 5.80555 4.74827 5.76336 4.73166C5.71414 4.71506 5.76336 4.54241 5.73875 4.48928C5.71414 4.41624 5.57 4.27678 5.58406 4.23694C5.55242 4.15393 5.65438 4.11409 5.72117 4.13069ZM9.09266 5.24631C8.95906 5.31272 8.90984 5.51194 8.9907 5.63147C9.06805 5.73108 9.18758 5.69456 9.20164 5.69456C9.33172 5.70784 9.40906 5.46545 9.40906 5.46545C9.40906 5.46545 9.41258 5.39905 9.26141 5.52854C9.19461 5.5385 9.19109 5.51526 9.17352 5.48206C9.15742 5.41884 9.16359 5.3524 9.19109 5.2928C9.2157 5.23303 9.16648 5.20647 9.09266 5.24631ZM10.077 4.03772C10.0067 4.08088 9.87664 4.21038 9.87313 4.35647C9.86961 4.43948 9.85203 4.43948 9.90828 4.48928C9.95398 4.54905 9.99266 4.54573 10.077 4.50256C10.0981 4.49006 10.1161 4.47357 10.13 4.45414C10.1439 4.43471 10.1534 4.41275 10.1579 4.38967C10.179 4.2967 10.0524 4.43616 10.0384 4.32991C10.0102 4.2303 10.0911 4.19045 10.1684 4.09749C10.1684 4.03108 10.1684 3.98791 10.0735 4.03772H10.077ZM10.8645 4.17053C10.8335 4.29144 10.8147 4.41484 10.8083 4.53909C10.7872 4.63206 10.9138 4.6719 10.9665 4.55237C11.0509 4.33655 11.0509 4.24358 11.0579 4.15393C11.0333 4.01116 10.9313 4.01448 10.8645 4.17053ZM15.8567 6.57112C15.8708 6.55452 16.5598 6.09299 16.5598 6.09299C16.6302 6.06975 16.6126 6.33206 16.5809 6.32874C16.3672 6.52324 16.1215 6.68361 15.8532 6.80354C15.818 6.82678 15.7864 6.62756 15.8532 6.57112H15.8567ZM16.479 6.56448C16.602 6.62092 16.6512 6.95627 16.6372 7.04592C16.6372 7.22522 16.5212 7.36467 16.472 7.34475C16.4227 7.32151 16.479 7.12229 16.4544 7.05256C16.4263 6.95295 16.3243 6.77034 16.3419 6.71721C16.3067 6.60432 16.4052 6.54456 16.4825 6.56448H16.479ZM12.4009 8.00549C12.4579 7.94263 12.5242 7.88783 12.5977 7.8428C12.668 7.80959 12.7313 7.86936 12.7278 7.86604C12.7384 7.93245 12.6856 7.98889 12.7032 8.07522C12.7173 8.10842 12.7278 8.14827 12.7946 8.13498C12.9036 8.05198 13.0055 8.04534 13.111 8.04202C13.1989 8.04534 13.2024 8.18147 13.1462 8.18147C12.9458 8.22131 12.8579 8.27444 12.7137 8.32424C12.6434 8.36409 12.5872 8.31428 12.5872 8.31096C12.5872 8.30764 12.5485 8.27444 12.5731 8.18811C12.5802 8.1217 12.552 8.08186 12.4887 8.0885C12.4466 8.11506 12.4044 8.12834 12.3833 8.07854C12.3727 8.04534 12.3692 8.02541 12.4009 8.00549ZM17.2032 8.18479C17.2313 8.21799 17.2524 8.2512 17.1997 8.31096L17.0696 8.41721C17.0485 8.45042 17.0345 8.51018 17.1048 8.52678C17.2313 8.55999 17.5266 8.37737 17.5266 8.37405C17.5759 8.34084 17.5618 8.27444 17.5548 8.27444C17.5266 8.24456 17.4634 8.26448 17.4212 8.25784C17.4001 8.25784 17.3333 8.2512 17.3649 8.19143C17.3885 8.16209 17.4075 8.12965 17.4212 8.09514C17.4388 8.0553 17.4212 8.02874 17.3509 8.00549C17.277 7.99221 17.2454 7.99885 17.1645 8.00549C17.1223 8.01213 17.1083 8.03206 17.0977 8.08186C17.1012 8.15823 17.1505 8.15491 17.2032 8.18147V8.18479Z" fill="white"/>
<path fill-rule="evenodd" clip-rule="evenodd" d="M12.4254 6.29865C12.4078 6.33186 12.3445 6.33186 12.2847 6.29865C12.225 6.26545 12.1898 6.21233 12.2109 6.18244C12.232 6.15256 12.2918 6.15256 12.3515 6.18244C12.4113 6.21233 12.443 6.26877 12.4254 6.29865ZM9.29647 4.51897C9.26131 4.52893 9.21209 4.49904 9.191 4.45256C9.1699 4.40608 9.18045 4.36623 9.21561 4.35627C9.25076 4.34631 9.29647 4.37951 9.32108 4.42268C9.34569 4.46584 9.33162 4.51233 9.29295 4.52229L9.29647 4.51897ZM15.4875 12.4512C15.818 12.4645 16.1273 12.4512 16.4543 12.4678C16.514 12.5176 16.4719 12.6338 16.4332 12.6272L16.159 12.6172C16.1555 12.5176 15.8883 12.5342 15.8953 12.6205C15.7512 12.6371 15.6211 12.6172 15.4734 12.6106C15.4312 12.5608 15.4383 12.4711 15.4875 12.4512Z" fill="#165D31"/>
</g>
</g>
<defs>
<clipPath id="clip0_61_13443">
<rect width="24" height="17" fill="white"/>
</clipPath>
</defs>
</svg>
