<svg width="24" height="17" viewBox="0 0 24 17" fill="none" xmlns="http://www.w3.org/2000/svg">
<g clip-path="url(#clip0_61_13432)">
<path d="M0 0H24V17H0V0Z" fill="#012169"/>
<path d="M2.8125 0L11.9625 6.41042L21.075 0H24V2.19583L15 8.53542L24 14.8396V17H21L12 10.6604L3.0375 17H0V14.875L8.9625 8.57083L0 2.26667V0H2.8125Z" fill="white"/>
<path d="M15.9 9.95208L24 15.5833V17L13.8375 9.95208H15.9ZM9 10.6604L9.225 11.9L2.025 17H0L9 10.6604ZM24 0V0.10625L14.6625 6.76458L14.7375 5.20625L22.125 0H24ZM0 0L8.9625 6.23333H6.7125L0 1.4875V0Z" fill="#C8102E"/>
<path d="M9.0375 0V17H15.0375V0H9.0375ZM0 5.66667V11.3333H24V5.66667H0Z" fill="white"/>
<path d="M0 6.83542V10.2354H24V6.83542H0ZM10.2375 0V17H13.8375V0H10.2375Z" fill="#C8102E"/>
</g>
<defs>
<clipPath id="clip0_61_13432">
<rect width="24" height="17" fill="white"/>
</clipPath>
</defs>
</svg>
