<svg width="24" height="17" viewBox="0 0 24 17" fill="none" xmlns="http://www.w3.org/2000/svg">
<g clip-path="url(#clip0_61_13502)">
<path fill-rule="evenodd" clip-rule="evenodd" d="M0 0H24V17H0V0Z" fill="#E30A17"/>
<path fill-rule="evenodd" clip-rule="evenodd" d="M15.2625 8.7655C15.2625 11.1101 13.215 13.012 10.6875 13.012C8.16005 13.012 6.11255 11.1101 6.11255 8.76196C6.11255 6.41383 8.16005 4.51904 10.6875 4.51904C13.215 4.51904 15.2625 6.42092 15.2625 8.7655Z" fill="white"/>
<path fill-rule="evenodd" clip-rule="evenodd" d="M15.4874 8.7656C15.4874 10.6427 13.8524 12.1621 11.8311 12.1621C9.80989 12.1621 8.17114 10.6391 8.17114 8.76206C8.17114 6.88497 9.80989 5.36914 11.8311 5.36914C13.8524 5.36914 15.4911 6.88852 15.4911 8.7656H15.4874Z" fill="#E30A17"/>
<path fill-rule="evenodd" clip-rule="evenodd" d="M16.1512 6.78235L16.1137 8.35131L14.5649 8.74798L16.0949 9.26152L16.0574 10.703L17.0512 9.57673L18.5587 10.0726L17.6887 8.86485L18.7499 7.66423L17.1187 8.08923L16.1512 6.77881V6.78235Z" fill="white"/>
</g>
<defs>
<clipPath id="clip0_61_13502">
<rect width="24" height="17" fill="white"/>
</clipPath>
</defs>
</svg>
